<svg width="0" height="0" class="hidden"><symbol xmlns="http://www.w3.org/2000/svg" preserveAspectRatio="xMidYMid meet" viewBox="0 0 1280 1280" id="dots"><path d="M550 12465c-105-35-200-141-222-248-43-206 163-412 369-369 155 32 275 190 260 339-11 105-90 213-190 262-61 29-155 36-217 16zm1280 0c-151-50-253-216-222-362 25-119 136-230 254-255 194-41 395 142 375 339-11 105-90 213-190 262-61 29-155 36-217 16zm1280 0c-105-35-200-141-222-248-43-206 163-412 369-369 155 32 275 190 260 339-11 105-90 213-190 262-61 29-155 36-217 16zm1280 0c-105-35-200-141-222-248-43-206 163-412 369-369 155 32 275 190 260 339-11 105-90 213-190 262-61 29-155 36-217 16zm1280 0c-105-35-200-141-222-248-43-206 163-412 369-369 155 32 275 190 260 339-11 105-90 213-190 262-61 29-155 36-217 16zm1280 0c-105-35-200-141-222-248-43-206 163-412 369-369 155 32 275 190 260 339-11 105-90 213-190 262-61 29-155 36-217 16zm1280 0c-105-35-200-141-222-248-43-206 163-412 369-369 155 32 275 190 260 339-11 105-90 213-190 262-61 29-155 36-217 16zm1280 0c-105-35-200-141-222-248-43-206 163-412 369-369 155 32 275 190 260 339-11 105-90 213-190 262-61 29-155 36-217 16zm1280 0c-105-35-200-141-222-248-25-117 32-244 142-319 107-74 229-75 337-3 177 118 201 338 53 485-85 86-207 119-310 85zm1280 0c-105-35-200-141-222-248-25-117 32-244 142-319 107-74 229-75 337-3 177 118 201 338 53 485-85 86-207 119-310 85zM550 11185c-105-35-200-141-222-248-43-206 163-412 369-369 155 32 275 190 260 339-11 105-90 213-190 262-61 29-155 36-217 16zm1280 0c-151-50-253-216-222-362 25-119 136-230 254-255 194-41 395 142 375 339-11 105-90 213-190 262-61 29-155 36-217 16zm1280 0c-105-35-200-141-222-248-43-206 163-412 369-369 155 32 275 190 260 339-11 105-90 213-190 262-61 29-155 36-217 16zm1280 0c-105-35-200-141-222-248-43-206 163-412 369-369 155 32 275 190 260 339-11 105-90 213-190 262-61 29-155 36-217 16zm1280 0c-105-35-200-141-222-248-43-206 163-412 369-369 155 32 275 190 260 339-11 105-90 213-190 262-61 29-155 36-217 16zm1280 0c-105-35-200-141-222-248-43-206 163-412 369-369 155 32 275 190 260 339-11 105-90 213-190 262-61 29-155 36-217 16zm1280 0c-105-35-200-141-222-248-43-206 163-412 369-369 155 32 275 190 260 339-11 105-90 213-190 262-61 29-155 36-217 16zm1280 0c-105-35-200-141-222-248-43-206 163-412 369-369 155 32 275 190 260 339-11 105-90 213-190 262-61 29-155 36-217 16zm1280 0c-105-35-200-141-222-248-25-117 32-244 142-319 107-74 229-75 337-3 177 118 201 338 53 485-85 86-207 119-310 85zm1280 0c-105-35-200-141-222-248-25-117 32-244 142-319 107-74 229-75 337-3 177 118 201 338 53 485-85 86-207 119-310 85zM550 9905c-105-35-200-141-222-248-43-206 163-412 369-369 155 32 275 190 260 339-11 105-90 213-190 262-61 29-155 36-217 16zm1280 0c-105-35-200-141-222-248-43-206 163-412 369-369 155 32 275 190 260 339-11 105-90 213-190 262-61 29-155 36-217 16zm1280 0c-105-35-200-141-222-248-43-206 163-412 369-369 155 32 275 190 260 339-11 105-90 213-190 262-61 29-155 36-217 16zm1280 0c-105-35-200-141-222-248-43-206 163-412 369-369 155 32 275 190 260 339-11 105-90 213-190 262-61 29-155 36-217 16zm1280 0c-105-35-200-141-222-248-43-206 163-412 369-369 155 32 275 190 260 339-11 105-90 213-190 262-61 29-155 36-217 16zm1280 0c-105-35-200-141-222-248-43-206 163-412 369-369 155 32 275 190 260 339-11 105-90 213-190 262-61 29-155 36-217 16zm1280 0c-105-35-200-141-222-248-43-206 163-412 369-369 155 32 275 190 260 339-11 105-90 213-190 262-61 29-155 36-217 16zm1280 0c-105-35-200-141-222-248-43-206 163-412 369-369 155 32 275 190 260 339-11 105-90 213-190 262-61 29-155 36-217 16zm1280 0c-105-35-200-141-222-248-43-206 163-412 369-369 155 32 275 190 260 339-11 105-90 213-190 262-61 29-155 36-217 16zm1280 0c-105-35-200-141-222-248-43-206 163-412 369-369 155 32 275 190 260 339-11 105-90 213-190 262-61 29-155 36-217 16zM550 8625c-105-35-200-141-222-248-43-206 163-412 369-369 155 32 275 190 260 339-11 105-90 213-190 262-61 29-155 36-217 16zm1280 0c-105-35-200-141-222-248-43-206 163-412 369-369 155 32 275 190 260 339-11 105-90 213-190 262-61 29-155 36-217 16zm1280 0c-105-35-200-141-222-248-43-206 163-412 369-369 155 32 275 190 260 339-11 105-90 213-190 262-61 29-155 36-217 16zm1280 0c-105-35-200-141-222-248-43-206 163-412 369-369 155 32 275 190 260 339-11 105-90 213-190 262-61 29-155 36-217 16zm1280 0c-105-35-200-141-222-248-43-206 163-412 369-369 155 32 275 190 260 339-11 105-90 213-190 262-61 29-155 36-217 16zm1280 0c-105-35-200-141-222-248-43-206 163-412 369-369 155 32 275 190 260 339-11 105-90 213-190 262-61 29-155 36-217 16zm1280 0c-105-35-200-141-222-248-43-206 163-412 369-369 155 32 275 190 260 339-11 105-90 213-190 262-61 29-155 36-217 16zm1280 0c-105-35-200-141-222-248-43-206 163-412 369-369 155 32 275 190 260 339-11 105-90 213-190 262-61 29-155 36-217 16zm1280 0c-105-35-200-141-222-248-43-206 163-412 369-369 155 32 275 190 260 339-11 105-90 213-190 262-61 29-155 36-217 16zm1280 0c-105-35-200-141-222-248-43-206 163-412 369-369 155 32 275 190 260 339-11 105-90 213-190 262-61 29-155 36-217 16zM550 7345c-105-35-200-141-222-248-43-206 163-412 369-369 155 32 275 190 260 339-11 105-90 213-190 262-61 29-155 36-217 16zm1280 0c-105-35-200-141-222-248-43-206 163-412 369-369 155 32 275 190 260 339-11 105-90 213-190 262-61 29-155 36-217 16zm1280 0c-105-35-200-141-222-248-43-206 163-412 369-369 155 32 275 190 260 339-11 105-90 213-190 262-61 29-155 36-217 16zm1280 0c-105-35-200-141-222-248-43-206 163-412 369-369 155 32 275 190 260 339-11 105-90 213-190 262-61 29-155 36-217 16zm1280 0c-105-35-200-141-222-248-43-206 163-412 369-369 155 32 275 190 260 339-11 105-90 213-190 262-61 29-155 36-217 16zm1280 0c-105-35-200-141-222-248-43-206 163-412 369-369 155 32 275 190 260 339-11 105-90 213-190 262-61 29-155 36-217 16zm1280 0c-105-35-200-141-222-248-43-206 163-412 369-369 155 32 275 190 260 339-11 105-90 213-190 262-61 29-155 36-217 16zm1280 0c-105-35-200-141-222-248-43-206 163-412 369-369 155 32 275 190 260 339-11 105-90 213-190 262-61 29-155 36-217 16zm1280 0c-105-35-200-141-222-248-43-206 163-412 369-369 155 32 275 190 260 339-11 105-90 213-190 262-61 29-155 36-217 16zm1280 0c-105-35-200-141-222-248-43-206 163-412 369-369 155 32 275 190 260 339-11 105-90 213-190 262-61 29-155 36-217 16zM550 6065c-105-35-200-141-222-248-43-206 163-412 369-369 155 32 275 190 260 339-11 105-90 213-190 262-61 29-155 36-217 16zm1280 0c-105-35-200-141-222-248-43-206 163-412 369-369 155 32 275 190 260 339-11 105-90 213-190 262-61 29-155 36-217 16zm1280 0c-105-35-200-141-222-248-43-206 163-412 369-369 155 32 275 190 260 339-11 105-90 213-190 262-61 29-155 36-217 16zm1280 0c-105-35-200-141-222-248-43-206 163-412 369-369 155 32 275 190 260 339-11 105-90 213-190 262-61 29-155 36-217 16zm1280 0c-105-35-200-141-222-248-43-206 163-412 369-369 155 32 275 190 260 339-11 105-90 213-190 262-61 29-155 36-217 16zm1280 0c-105-35-200-141-222-248-43-206 163-412 369-369 155 32 275 190 260 339-11 105-90 213-190 262-61 29-155 36-217 16zm1280 0c-105-35-200-141-222-248-43-206 163-412 369-369 155 32 275 190 260 339-11 105-90 213-190 262-61 29-155 36-217 16zm1280 0c-105-35-200-141-222-248-43-206 163-412 369-369 155 32 275 190 260 339-11 105-90 213-190 262-61 29-155 36-217 16zm1280 0c-105-35-200-141-222-248-43-206 163-412 369-369 155 32 275 190 260 339-11 105-90 213-190 262-61 29-155 36-217 16zm1280 0c-105-35-200-141-222-248-43-206 163-412 369-369 155 32 275 190 260 339-11 105-90 213-190 262-61 29-155 36-217 16zM550 4785c-105-35-200-141-222-248-43-206 163-412 369-369 155 32 275 190 260 339-11 105-90 213-190 262-61 29-155 36-217 16zm1280 0c-105-35-200-141-222-248-43-206 163-412 369-369 155 32 275 190 260 339-11 105-90 213-190 262-61 29-155 36-217 16zm1280 0c-105-35-200-141-222-248-25-117 32-244 142-319 107-74 229-75 337-3 177 118 201 338 53 485-85 86-207 119-310 85zm1280 0c-105-35-200-141-222-248-25-117 32-244 142-319 107-74 229-75 337-3 177 118 201 338 53 485-85 86-207 119-310 85zm1280 0c-151-50-253-216-222-362 25-119 136-230 255-255 193-41 394 142 374 339-11 105-90 213-190 262-61 29-155 36-217 16zm1280 0c-151-50-253-216-222-362 25-119 136-230 255-255 193-41 394 142 374 339-11 105-90 213-190 262-61 29-155 36-217 16zm1280 0c-151-50-253-216-222-362 25-119 136-230 255-255 193-41 394 142 374 339-11 105-90 213-190 262-61 29-155 36-217 16zm1280 0c-151-50-253-216-222-362 25-119 136-230 255-255 193-41 394 142 374 339-11 105-90 213-190 262-61 29-155 36-217 16zm1280 0c-105-35-200-141-222-248-43-206 163-412 369-369 155 32 275 190 260 339-11 105-90 213-190 262-61 29-155 36-217 16zm1280 0c-105-35-200-141-222-248-43-206 163-412 369-369 155 32 275 190 260 339-11 105-90 213-190 262-61 29-155 36-217 16zM550 3505c-105-35-200-141-222-248-43-206 163-412 369-369 155 32 275 190 260 339-11 105-90 213-190 262-61 29-155 36-217 16zm1280 0c-105-35-200-141-222-248-43-206 163-412 369-369 155 32 275 190 260 339-11 105-90 213-190 262-61 29-155 36-217 16zm1280 0c-105-35-200-141-222-248-25-117 32-244 142-319 107-74 229-75 337-3 177 118 201 338 53 485-85 86-207 119-310 85zm1280 0c-105-35-200-141-222-248-25-117 32-244 142-319 107-74 229-75 337-3 177 118 201 338 53 485-85 86-207 119-310 85zm1280 0c-151-50-253-216-222-362 25-119 136-230 255-255 193-41 394 142 374 339-11 105-90 213-190 262-61 29-155 36-217 16zm1280 0c-151-50-253-216-222-362 25-119 136-230 255-255 193-41 394 142 374 339-11 105-90 213-190 262-61 29-155 36-217 16zm1280 0c-151-50-253-216-222-362 25-119 136-230 255-255 193-41 394 142 374 339-11 105-90 213-190 262-61 29-155 36-217 16zm1280 0c-151-50-253-216-222-362 25-119 136-230 255-255 193-41 394 142 374 339-11 105-90 213-190 262-61 29-155 36-217 16zm1280 0c-105-35-200-141-222-248-43-206 163-412 369-369 155 32 275 190 260 339-11 105-90 213-190 262-61 29-155 36-217 16zm1280 0c-105-35-200-141-222-248-43-206 163-412 369-369 155 32 275 190 260 339-11 105-90 213-190 262-61 29-155 36-217 16zM550 2225c-105-35-200-141-222-248-43-206 163-412 369-369 155 32 275 190 260 339-11 105-90 213-190 262-61 29-155 36-217 16zm1280 0c-105-35-200-141-222-248-43-206 163-412 369-369 155 32 275 190 260 339-11 105-90 213-190 262-61 29-155 36-217 16zm1280 0c-105-35-200-141-222-248-25-117 32-244 142-319 107-74 229-75 337-3 177 118 201 338 53 485-85 86-207 119-310 85zm1280 0c-105-35-200-141-222-248-25-117 32-244 142-319 107-74 229-75 337-3 177 118 201 338 53 485-85 86-207 119-310 85zm1280 0c-105-35-200-141-222-248-43-206 163-412 369-369 155 32 275 190 260 339-11 105-90 213-190 262-61 29-155 36-217 16zm1280 0c-105-35-200-141-222-248-43-206 163-412 369-369 155 32 275 190 260 339-11 105-90 213-190 262-61 29-155 36-217 16zm1280 0c-105-35-200-141-222-248-43-206 163-412 369-369 155 32 275 190 260 339-11 105-90 213-190 262-61 29-155 36-217 16zm1280 0c-105-35-200-141-222-248-43-206 163-412 369-369 155 32 275 190 260 339-11 105-90 213-190 262-61 29-155 36-217 16zm1280 0c-105-35-200-141-222-248-43-206 163-412 369-369 155 32 275 190 260 339-11 105-90 213-190 262-61 29-155 36-217 16zm1280 0c-105-35-200-141-222-248-43-206 163-412 369-369 155 32 275 190 260 339-11 105-90 213-190 262-61 29-155 36-217 16zM550 945c-105-35-200-141-222-248-43-206 163-412 369-369 155 32 275 190 260 339-11 105-90 213-190 262-61 29-155 36-217 16zm1280 0c-105-35-200-141-222-248-43-206 163-412 369-369 155 32 275 190 260 339-11 105-90 213-190 262-61 29-155 36-217 16zm1280 0c-105-35-200-141-222-248-43-206 163-412 369-369 155 32 275 190 260 339-11 105-90 213-190 262-61 29-155 36-217 16zm1280 0c-105-35-200-141-222-248-43-206 163-412 369-369 155 32 275 190 260 339-11 105-90 213-190 262-61 29-155 36-217 16zm1280 0c-105-35-200-141-222-248-43-206 163-412 369-369 155 32 275 190 260 339-11 105-90 213-190 262-61 29-155 36-217 16zm1280 0c-105-35-200-141-222-248-43-206 163-412 369-369 155 32 275 190 260 339-11 105-90 213-190 262-61 29-155 36-217 16zm1280 0c-105-35-200-141-222-248-43-206 163-412 369-369 155 32 275 190 260 339-11 105-90 213-190 262-61 29-155 36-217 16zm1280 0c-105-35-200-141-222-248-43-206 163-412 369-369 155 32 275 190 260 339-11 105-90 213-190 262-61 29-155 36-217 16zm1280 0c-105-35-200-141-222-248-43-206 163-412 369-369 155 32 275 190 260 339-11 105-90 213-190 262-61 29-155 36-217 16zm1280 0c-105-35-200-141-222-248-43-206 163-412 369-369 155 32 275 190 260 339-11 105-90 213-190 262-61 29-155 36-217 16z" transform="matrix(.1 0 0 -.1 0 1280)"/></symbol></svg>