<svg width="419" height="499" fill="#fff" xmlns="http://www.w3.org/2000/svg"><path d="M379.617.498l-5.7.332-2.988 4.98c-1.604 2.711-3.762 6.363-4.758 8.023-2.158 3.652-11.122 17.873-11.565 18.26-.166.166-1.549 2.269-3.043 4.704-3.154 5.201-15.549 22.465-17.984 25.01-.885.996-1.66 1.937-1.66 2.103 0 .996-17.098 18.703-20.86 21.69-5.866 4.538-17.32 12.34-18.205 12.34-.111 0-1.273.609-2.49 1.383-2.822 1.826-9.517 4.427-15.161 5.866-2.435.608-5.921 1.604-7.747 2.213-7.968 2.49-34.251 5.644-47.033 5.644-21.193-.055-56.385-2.324-62.527-3.984-11.177-3.043-18.481-5.755-22.963-8.466-21.746-13.114-22.023-13.28-31.928-23.406-5.146-5.146-10.68-11.011-12.394-13.003-1.716-1.992-4.704-5.423-6.64-7.692-7.415-8.576-13.225-16.102-18.316-23.572-2.877-4.26-7.082-10.347-9.296-13.556-2.268-3.21-4.924-7.083-6.031-8.577-1.051-1.55-2.933-4.26-4.15-6.087-1.273-1.826-2.49-3.541-2.822-3.762C42.858.498.473.94.03 1.383c-.332.277 1.881 3.929 17.873 29.604 15.216 24.402 17.872 28.718 20.307 33.2.775 1.383 3.929 6.972 7.083 12.45 3.098 5.478 6.916 12.173 8.466 14.94 3.873 6.916 9.35 16.6 12.56 22.133 5.146 9.019 6.972 12.561 12.616 24.07 3.486 7.138 7.526 15.493 8.964 18.537a1013.66 1013.66 0 005.202 10.845c1.383 2.933 4.426 10.071 6.75 15.77 13.225 32.757 21.525 53.673 24.79 62.471 2.047 5.478 3.984 10.458 4.205 11.067 1.937 4.316 10.569 28.552 14.995 42.053 11.731 35.524 13.225 41.722 22.078 92.13 1.494 8.688 2.988 16.988 3.32 18.537 3.099 16.047 6.862 42.275 8.079 56.717.719 8.521 1.826 26.892 1.881 31.097v1.549h79.016l.332-1.272c.166-.664.332-5.312.332-10.348 0-5.035.277-13.003.554-17.706.332-4.704.83-13.17 1.106-18.814.554-10.624 3.486-41.666 4.372-46.314.332-1.438 1.051-6.75 1.715-11.786.664-5.035 1.771-12.505 2.545-16.6 2.988-16.434 5.312-28.22 6.585-33.753 5.478-23.572 7.415-31.374 11.122-44.543 6.308-22.41 6.917-24.513 11.233-36.797 2.213-6.253 4.648-13.335 5.422-15.77.775-2.435 2.712-7.802 4.316-11.897 1.605-4.094 4.704-12.228 6.917-17.983 2.158-5.81 5.423-14.11 7.193-18.537 5.257-13.003 14.885-36.464 16.877-41.223 1.051-2.435 2.767-6.806 3.873-9.683 1.162-2.878 3.431-8.134 5.091-11.62 3.375-7.028 6.806-14.11 15.493-32.37 8.356-17.486 15.383-31.706 17.098-34.584.775-1.383 3.652-6.086 6.253-10.513 10.956-18.15 19.92-33.975 27.667-48.86L418.35 0l-16.545.11c-9.074.056-19.034.222-22.188.388zm-83.83 138.942c2.434 3.873 1.77 9.407-1.992 16.379-2.103 3.873-3.763 8.023-11.676 29.548-2.158 5.92-5.201 14.165-6.75 18.26a594.68 594.68 0 00-3.265 8.853c-.221.775-1.715 4.759-3.265 8.853-5.754 15.272-6.584 17.652-13.667 40.67-.719 2.435-2.545 9.02-4.039 14.664-9.573 36.354-10.126 38.512-12.395 48.97-14.165 64.352-15.272 70.107-17.541 94.232-.498 5.146-.94 7.304-1.438 7.304-.388 0-.886-.442-1.218-.996-.608-1.162-2.988-12.56-6.695-32.48-8.355-44.544-11.177-57.934-14.608-68.89-.719-2.269-2.49-8.024-3.929-12.727-3.264-10.845-10.292-32.37-17.153-52.29-2.933-8.521-6.087-17.596-6.917-20.197-.885-2.6-2.6-7.193-3.873-10.236-1.273-3.044-3.209-7.636-4.261-10.237-1.051-2.601-2.268-5.589-2.766-6.64-.886-1.881-3.265-7.581-7.083-16.877-.996-2.434-3.265-7.802-4.98-11.896-5.644-13.28-10.292-25.066-11.399-28.774-.608-1.992-1.383-4.537-1.715-5.644-.498-1.77-.443-2.434.387-4.26 1.218-2.767 3.431-4.814 5.478-5.202 1.55-.276 5.202.277 14.166 1.992 17.817 3.542 22.354 4.15 35.69 4.925 13.833.775 50.796 1.162 55.333.553 18.869-2.6 35.247-5.699 41.223-7.857 4.206-1.494 9.462-1.494 10.348 0z"/></svg>