<svg width="419" height="499" viewBox="0 0 419 499" fill="#ffffff" xmlns="http://www.w3.org/2000/svg">
<path d="M379.617 0.497955L373.917 0.829956L370.929 5.80997C369.325 8.5213 367.167 12.1733 366.171 13.8333C364.013 17.4853 355.049 31.706 354.606 32.0933C354.44 32.2593 353.057 34.362 351.563 36.7966C348.409 41.998 336.014 59.262 333.579 61.8073C332.694 62.8033 331.919 63.744 331.919 63.91C331.919 64.906 314.821 82.6126 311.059 85.6006C305.193 90.138 293.739 97.94 292.854 97.94C292.743 97.94 291.581 98.5486 290.364 99.3233C287.542 101.149 280.847 103.75 275.203 105.189C272.768 105.797 269.282 106.793 267.456 107.402C259.488 109.892 233.205 113.046 220.423 113.046C199.23 112.991 164.038 110.722 157.896 109.062C146.719 106.019 139.415 103.307 134.933 100.596C113.187 87.482 112.91 87.316 103.005 77.19C97.8592 72.044 92.3259 66.1786 90.6106 64.1866C88.8952 62.1946 85.9072 58.764 83.9706 56.4953C76.5559 47.9186 70.7459 40.3933 65.6552 32.9233C62.7779 28.6626 58.5726 22.576 56.3592 19.3666C54.0906 16.1573 51.4346 12.284 50.3279 10.79C49.2766 9.24064 47.3952 6.52931 46.1779 4.70331C44.9052 2.87731 43.6879 1.16198 43.3559 0.940643C42.8579 0.497977 0.472556 0.940634 0.0298891 1.3833C-0.302111 1.65997 1.91122 5.31196 17.9026 30.9866C33.1192 55.3886 35.7752 59.7046 38.2099 64.1866C38.9846 65.57 42.1386 71.1586 45.2926 76.6366C48.3912 82.1146 52.2092 88.81 53.7586 91.5766C57.6319 98.4933 63.1099 108.177 66.3192 113.71C71.4652 122.729 73.2912 126.271 78.9352 137.78C82.4212 144.918 86.4606 153.273 87.8992 156.317C89.3379 159.36 91.6619 164.229 93.1006 167.162C94.4839 170.095 97.5272 177.233 99.8512 182.932C113.076 215.689 121.376 236.605 124.641 245.403C126.688 250.881 128.625 255.861 128.846 256.47C130.783 260.786 139.415 285.022 143.841 298.523C155.572 334.047 157.066 340.245 165.919 390.653C167.413 399.341 168.907 407.641 169.239 409.19C172.338 425.237 176.101 451.465 177.318 465.907C178.037 474.428 179.144 492.799 179.199 497.004V498.553H218.707H258.215L258.547 497.281C258.713 496.617 258.879 491.969 258.879 486.933C258.879 481.898 259.156 473.93 259.433 469.227C259.765 464.523 260.263 456.057 260.539 450.413C261.093 439.789 264.025 408.747 264.911 404.099C265.243 402.661 265.962 397.349 266.626 392.313C267.29 387.278 268.397 379.808 269.171 375.713C272.159 359.279 274.483 347.493 275.756 341.96C281.234 318.388 283.171 310.586 286.878 297.417C293.186 275.007 293.795 272.904 298.111 260.62C300.324 254.367 302.759 247.285 303.533 244.85C304.308 242.415 306.245 237.048 307.849 232.953C309.454 228.859 312.553 220.725 314.766 214.97C316.924 209.16 320.189 200.86 321.959 196.433C327.216 183.43 336.844 159.969 338.836 155.21C339.887 152.775 341.603 148.404 342.709 145.527C343.871 142.649 346.14 137.393 347.8 133.907C351.175 126.879 354.606 119.797 363.293 101.537C371.649 84.0513 378.676 69.8306 380.391 66.9533C381.166 65.57 384.043 60.8666 386.644 56.44C397.6 38.2906 406.564 22.4653 414.311 7.58063L418.35 -3.05176e-05L401.805 0.110626C392.731 0.16596 382.771 0.331955 379.617 0.497955ZM295.787 139.44C298.221 143.313 297.557 148.847 293.795 155.819C291.692 159.692 290.032 163.842 282.119 185.367C279.961 191.287 276.918 199.532 275.369 203.627C273.819 207.721 272.381 211.705 272.104 212.48C271.883 213.255 270.389 217.239 268.839 221.333C263.085 236.605 262.255 238.985 255.172 262.003C254.453 264.438 252.627 271.023 251.133 276.667C241.56 313.021 241.007 315.179 238.738 325.637C224.573 389.989 223.466 395.744 221.197 419.869C220.699 425.015 220.257 427.173 219.759 427.173C219.371 427.173 218.873 426.731 218.541 426.177C217.933 425.015 215.553 413.617 211.846 393.697C203.491 349.153 200.669 335.763 197.238 324.807C196.519 322.538 194.748 316.783 193.309 312.08C190.045 301.235 183.017 279.71 176.156 259.79C173.223 251.269 170.069 242.194 169.239 239.593C168.354 236.993 166.639 232.4 165.366 229.357C164.093 226.313 162.157 221.721 161.105 219.12C160.054 216.519 158.837 213.531 158.339 212.48C157.453 210.599 155.074 204.899 151.256 195.603C150.26 193.169 147.991 187.801 146.276 183.707C140.632 170.427 135.984 158.641 134.877 154.933C134.269 152.941 133.494 150.396 133.162 149.289C132.664 147.519 132.719 146.855 133.549 145.029C134.767 142.262 136.98 140.215 139.027 139.827C140.577 139.551 144.229 140.104 153.193 141.819C171.01 145.361 175.547 145.969 188.883 146.744C202.716 147.519 239.679 147.906 244.216 147.297C263.085 144.697 279.463 141.598 285.439 139.44C289.645 137.946 294.901 137.946 295.787 139.44Z" fill="white"/>
</svg>
