<?xml version="1.0" standalone="no"?>
<!DOCTYPE svg PUBLIC "-//W3C//DTD SVG 20010904//EN"
 "http://www.w3.org/TR/2001/REC-SVG-20010904/DTD/svg10.dtd">
<svg version="1.0" xmlns="http://www.w3.org/2000/svg"
 width="998.000000pt" height="998.000000pt" viewBox="0 0 998.000000 998.000000"
 preserveAspectRatio="xMidYMid meet">
<metadata>
Created by potrace 1.14, written by Peter Selinger 2001-2017
</metadata>
<g transform="translate(0.000000,998.000000) scale(0.100000,-0.100000)"
fill="#000000" stroke="none">
<path d="M8466 9973 c-1 -1 -41 -3 -89 -4 -48 -2 -91 -6 -95 -9 -5 -3 -64 -97
-132 -210 -68 -113 -145 -238 -172 -278 -26 -41 -48 -76 -48 -78 0 -3 -18 -29
-39 -58 -22 -30 -37 -56 -34 -60 4 -3 1 -6 -5 -6 -7 0 -12 -6 -12 -14 0 -8 -3
-16 -7 -18 -5 -1 -26 -30 -48 -63 -22 -33 -47 -68 -55 -78 -8 -10 -13 -19 -10
-20 4 -2 -20 -33 -47 -62 -7 -8 -13 -16 -13 -19 0 -3 -23 -36 -51 -73 -28 -37
-61 -81 -72 -97 -27 -37 -70 -89 -78 -96 -3 -3 -10 -13 -15 -22 -13 -24 -173
-196 -294 -317 -235 -234 -552 -430 -820 -507 -258 -74 -255 -73 -365 -90 -16
-3 -52 -9 -80 -14 -27 -5 -71 -11 -97 -15 -27 -3 -67 -7 -90 -10 -190 -23
-384 -36 -503 -35 -409 4 -934 34 -1155 66 -25 4 -54 7 -65 9 -11 1 -27 4 -35
8 -8 3 -49 15 -90 27 -41 12 -82 25 -90 28 -8 3 -22 6 -30 8 -8 2 -23 7 -35
12 -52 25 -99 44 -109 46 -6 1 -28 12 -47 24 -20 12 -39 22 -43 22 -4 0 -33
17 -64 38 -32 20 -66 43 -77 50 -11 7 -32 18 -47 25 -16 6 -28 15 -28 19 0 4
-7 8 -15 8 -8 0 -15 5 -15 10 0 6 -5 10 -11 10 -7 0 -34 16 -60 35 -27 19 -54
35 -59 35 -6 0 -10 4 -10 8 0 4 -15 16 -32 27 -53 30 -407 390 -538 545 -30
36 -57 67 -60 70 -16 16 -156 187 -208 255 -34 44 -66 85 -70 90 -5 6 -17 24
-28 40 -10 17 -21 32 -24 35 -3 3 -22 31 -43 62 -21 31 -44 64 -53 72 -8 9
-13 16 -9 16 4 0 0 7 -7 15 -21 23 -29 35 -93 130 -32 50 -62 92 -65 95 -3 3
-33 45 -65 95 -33 49 -66 96 -72 105 -7 8 -27 36 -45 61 l-33 45 -350 -3
c-390 -3 -502 -6 -510 -15 -3 -3 24 -54 60 -113 36 -58 65 -111 65 -116 0 -5
4 -9 9 -9 5 0 12 -8 15 -17 13 -37 37 -73 48 -73 6 0 9 -3 6 -6 -3 -3 21 -47
53 -97 33 -51 65 -103 71 -117 7 -14 15 -27 19 -30 3 -3 25 -36 48 -75 24 -38
70 -113 102 -165 33 -52 91 -147 130 -210 38 -63 74 -122 79 -130 5 -8 23 -38
38 -66 16 -27 42 -72 57 -100 16 -27 36 -64 46 -82 9 -18 22 -38 27 -45 5 -7
26 -43 47 -82 21 -38 41 -74 45 -80 4 -5 22 -37 40 -70 18 -33 62 -110 97
-172 34 -62 63 -117 63 -123 0 -5 5 -10 10 -10 6 0 10 -4 10 -9 0 -4 23 -48
51 -97 29 -49 65 -114 82 -144 16 -30 33 -59 37 -65 36 -47 376 -731 372 -747
-1 -5 3 -8 8 -8 6 0 10 -4 10 -10 0 -5 26 -65 58 -132 32 -68 66 -139 74 -158
9 -19 25 -55 36 -80 11 -25 49 -117 84 -205 36 -88 68 -169 73 -180 5 -11 9
-22 10 -25 1 -3 7 -17 13 -32 30 -70 35 -84 38 -94 1 -6 9 -27 17 -45 9 -19
30 -70 47 -114 17 -44 39 -98 49 -120 10 -22 22 -51 26 -65 4 -14 13 -38 21
-55 7 -16 27 -66 44 -110 17 -44 35 -89 40 -100 15 -33 170 -441 170 -448 0
-4 9 -26 19 -50 11 -23 35 -85 54 -137 19 -52 38 -104 43 -115 4 -11 8 -22 9
-25 1 -3 4 -12 8 -20 3 -8 20 -55 37 -105 18 -49 45 -126 60 -170 33 -94 141
-416 144 -430 4 -21 28 -91 37 -110 5 -11 10 -29 12 -40 1 -11 5 -24 8 -30 5
-9 11 -26 25 -80 1 -5 16 -54 33 -109 17 -54 31 -105 31 -112 0 -8 4 -22 9
-32 9 -17 32 -111 37 -147 1 -11 3 -21 4 -22 3 -3 1 5 28 -113 12 -52 24 -108
27 -125 3 -16 8 -41 11 -55 5 -28 9 -46 19 -105 3 -22 9 -47 12 -55 3 -8 7
-32 9 -53 2 -20 5 -41 8 -45 3 -5 8 -31 12 -58 3 -27 8 -52 10 -55 1 -3 6 -28
9 -55 4 -27 8 -56 10 -64 3 -8 12 -55 20 -105 9 -49 18 -101 21 -115 3 -14 7
-36 9 -50 2 -14 6 -38 9 -55 3 -16 8 -47 12 -69 3 -21 8 -48 10 -60 9 -40 13
-61 28 -146 9 -47 18 -96 20 -110 13 -68 38 -219 42 -250 2 -19 6 -46 8 -60 3
-14 7 -42 10 -62 3 -21 9 -55 12 -75 3 -21 8 -56 10 -78 2 -21 6 -50 9 -64 4
-25 11 -71 20 -151 3 -25 7 -56 10 -70 2 -14 7 -56 10 -95 3 -38 7 -86 9 -105
2 -19 7 -78 10 -130 4 -52 9 -115 11 -140 5 -50 17 -303 18 -362 1 -38 1 -38
41 -38 316 -3 1540 0 1543 4 3 3 7 76 8 163 3 154 14 427 20 528 2 28 6 95 9
150 10 189 17 287 31 430 3 33 8 85 10 115 13 138 23 239 30 305 3 22 7 63 10
90 5 51 12 104 19 140 9 49 22 144 31 225 3 19 12 80 21 135 8 55 18 114 20
130 2 17 6 40 9 53 12 54 15 68 21 107 3 22 19 105 34 185 16 80 31 159 34
175 13 69 21 105 40 188 9 37 18 80 21 97 3 16 10 41 15 56 6 15 8 29 6 31 -3
3 0 17 6 32 5 14 11 33 13 41 17 80 41 181 61 255 13 50 24 92 24 95 0 3 7 28
14 55 8 28 17 61 20 75 3 14 24 90 46 170 23 80 45 159 50 175 19 75 75 260
108 360 20 61 37 115 38 120 1 6 16 47 33 92 16 45 50 142 74 215 48 144 110
314 133 365 8 17 14 33 14 36 0 3 5 18 12 34 6 15 12 33 14 38 4 15 121 315
161 415 19 47 35 91 36 98 0 6 4 12 9 12 4 0 7 3 6 8 -1 4 4 23 11 42 8 19 15
37 16 40 7 18 27 68 34 85 16 36 24 60 23 68 -1 4 3 7 8 7 6 0 10 6 10 14 0 7
9 35 21 62 23 57 26 63 67 164 17 41 56 136 87 210 31 74 57 140 59 145 1 6
10 28 20 50 10 22 29 69 43 105 30 78 33 86 72 173 17 38 31 70 31 72 0 1 41
88 91 191 107 221 152 317 154 324 2 9 135 284 175 363 22 43 40 84 40 92 0 7
3 15 8 17 4 2 15 19 24 38 114 239 212 421 316 588 12 21 26 46 32 57 5 11 23
40 39 65 17 25 31 51 31 58 0 6 5 12 10 12 6 0 10 6 10 14 0 8 4 16 9 18 5 2
20 26 35 53 14 28 39 73 56 100 27 47 49 85 118 210 71 129 95 171 103 181 5
6 6 14 2 17 -3 4 -2 7 3 7 6 0 16 16 24 35 8 19 18 35 24 35 5 0 7 3 3 6 -3 3
8 28 24 55 16 28 29 52 29 54 0 2 13 26 29 53 16 27 32 59 35 70 l7 22 -346
-3 c-191 -1 -348 -3 -349 -4z m-1754 -2780 c31 -27 40 -114 20 -183 -8 -25
-14 -50 -16 -56 -1 -5 -20 -48 -42 -95 -22 -46 -53 -115 -69 -154 -15 -38 -33
-83 -40 -100 -8 -16 -23 -59 -35 -94 -11 -34 -31 -91 -44 -125 -33 -84 -39
-99 -42 -111 -1 -5 -17 -46 -34 -90 -17 -44 -32 -84 -34 -90 -1 -5 -15 -44
-31 -85 -15 -41 -28 -80 -28 -87 0 -7 -4 -13 -9 -13 -4 0 -8 -6 -8 -12 0 -13
-159 -451 -201 -553 -4 -11 -11 -31 -14 -45 -4 -14 -13 -38 -20 -55 -13 -30
-64 -184 -69 -208 -2 -7 -8 -25 -14 -40 -7 -16 -12 -31 -12 -35 0 -7 -47 -163
-57 -192 -4 -8 -7 -21 -9 -27 -1 -7 -16 -61 -33 -120 -28 -100 -51 -184 -57
-208 -1 -5 -19 -73 -39 -150 -20 -77 -39 -148 -40 -158 -2 -9 -6 -21 -9 -25
-3 -5 -7 -19 -9 -33 -3 -13 -11 -44 -18 -69 -7 -25 -12 -48 -11 -52 1 -4 -5
-25 -13 -47 -8 -23 -15 -45 -15 -49 0 -4 -5 -25 -11 -47 -6 -22 -13 -51 -15
-65 -3 -14 -9 -38 -14 -55 -5 -16 -11 -41 -14 -55 -4 -23 -19 -94 -62 -280 -8
-36 -16 -74 -19 -85 -2 -11 -17 -83 -34 -160 -17 -77 -34 -153 -37 -169 -3
-16 -6 -32 -8 -35 -2 -3 -7 -22 -10 -41 -3 -19 -8 -46 -11 -60 -3 -14 -8 -36
-11 -50 -2 -14 -11 -56 -20 -95 -9 -38 -18 -81 -20 -95 -2 -14 -9 -45 -14 -70
-17 -73 -21 -93 -26 -125 -2 -16 -9 -50 -14 -75 -19 -89 -42 -216 -45 -250 -2
-19 -6 -51 -10 -70 -3 -19 -8 -53 -10 -75 -3 -22 -7 -62 -11 -90 -3 -27 -7
-63 -9 -80 -18 -215 -26 -260 -45 -260 -15 0 -33 43 -43 100 -3 17 -10 53 -16
80 -6 28 -13 61 -16 75 -2 14 -7 36 -10 50 -3 14 -7 36 -10 50 -3 14 -7 36
-10 50 -2 14 -7 41 -10 60 -3 19 -8 42 -11 51 -2 10 -7 32 -10 50 -6 39 -9 53
-24 134 -17 82 -18 90 -20 90 -1 0 -3 14 -5 30 -3 31 -10 71 -21 115 -3 14 -7
39 -9 55 -3 17 -7 41 -10 55 -9 41 -25 123 -31 159 -3 18 -8 42 -10 52 -2 11
-6 27 -8 38 -2 10 -7 36 -10 57 -4 22 -9 47 -12 57 -3 11 -7 29 -9 40 -2 12
-6 33 -9 47 -3 14 -10 45 -15 70 -5 25 -12 56 -15 70 -3 14 -9 41 -12 60 -3
19 -10 49 -15 65 -5 17 -17 66 -28 110 -17 72 -35 134 -74 260 -6 22 -12 42
-13 45 0 3 -3 12 -7 20 -3 8 -11 33 -17 55 -6 22 -14 47 -17 55 -3 8 -7 20 -8
26 -5 20 -48 159 -56 179 -4 11 -13 36 -18 55 -6 19 -31 94 -55 165 -23 72
-43 132 -44 135 0 3 -3 12 -6 20 -3 8 -37 112 -76 230 -39 118 -76 224 -81
235 -8 18 -88 252 -139 405 -19 58 -85 228 -125 320 -13 30 -49 116 -81 190
-31 74 -65 154 -75 177 -10 23 -19 45 -19 48 0 3 -9 25 -19 48 -10 23 -36 83
-56 132 -20 50 -42 101 -48 115 -6 14 -11 28 -11 32 -1 3 -4 10 -9 14 -4 4 -7
16 -7 26 0 10 -4 18 -10 18 -5 0 -10 6 -10 14 0 7 -10 35 -21 62 -48 111 -58
134 -98 239 -24 61 -47 119 -51 130 -31 73 -55 149 -72 221 -15 66 -6 97 46
152 37 38 48 45 82 45 43 0 104 -8 179 -23 28 -6 64 -12 80 -14 17 -2 37 -7
45 -10 8 -3 31 -7 50 -10 19 -3 46 -8 60 -11 28 -6 83 -15 120 -20 14 -2 36
-6 50 -10 26 -5 70 -11 153 -20 26 -3 68 -7 95 -10 168 -19 1136 -35 1252 -21
94 11 165 22 210 31 14 3 43 7 65 10 42 5 67 9 180 30 38 8 73 11 77 9 4 -3 8
-1 8 4 0 5 6 9 13 9 23 1 102 15 109 19 4 3 17 7 28 9 11 2 48 12 83 21 158
43 224 47 259 17z"/>
</g>
</svg>
